<?xml version="1.0" standalone="no"?>
<!DOCTYPE svg PUBLIC "-//W3C//DTD SVG 20010904//EN"
 "http://www.w3.org/TR/2001/REC-SVG-20010904/DTD/svg10.dtd">
<svg version="1.0" xmlns="http://www.w3.org/2000/svg"
 width="128.000000pt" height="128.000000pt" viewBox="0 0 128.000000 128.000000"
 preserveAspectRatio="xMidYMid meet">
<metadata>
Created by potrace 1.11, written by Peter Selinger 2001-2013
</metadata>
<g transform="translate(0.000000,128.000000) scale(0.100000,-0.100000)"
fill="#000000" stroke="none">
<path d="M585 1255 c-35 -34 -33 -78 4 -116 27 -26 28 -31 14 -45 -9 -8 -21
-13 -28 -10 -7 2 -43 -11 -80 -29 -37 -19 -72 -32 -76 -29 -5 3 -6 16 -3 30 8
30 -18 71 -52 84 -31 12 -68 -2 -90 -34 -32 -49 12 -120 71 -114 19 1 37 0 40
-4 4 -4 -4 -26 -18 -50 -14 -24 -31 -63 -38 -88 -17 -63 -23 -66 -60 -36 -37
31 -72 29 -102 -6 -57 -67 46 -149 106 -84 28 30 42 23 52 -24 4 -19 20 -59
36 -89 27 -50 28 -56 13 -72 -11 -12 -25 -16 -48 -12 -61 10 -105 -76 -63
-125 47 -58 151 -10 133 61 -4 16 0 29 12 41 17 15 22 14 73 -13 30 -16 70
-32 89 -36 47 -10 53 -24 24 -53 -23 -24 -31 -66 -16 -88 10 -16 48 -34 71
-34 23 0 61 44 61 72 0 11 -11 34 -25 50 -30 36 -27 44 22 53 21 3 62 20 92
36 58 31 72 31 64 -1 -19 -73 72 -125 128 -74 54 49 -1 151 -69 130 -32 -11
-35 10 -8 56 13 24 30 63 37 88 17 61 21 64 53 35 33 -31 76 -33 102 -4 28 31
28 66 0 94 -32 32 -67 32 -99 -1 -14 -14 -30 -23 -36 -20 -5 3 -14 29 -21 57
-9 36 -19 53 -34 59 -25 9 -51 53 -42 69 7 11 -27 34 -37 25 -9 -9 -57 27 -57
42 0 18 -55 40 -107 43 -18 1 -10 24 20 53 42 42 36 98 -14 123 -40 21 -66 19
-94 -10z"/>
<path d="M950 1172 c-59 -18 -77 -86 -35 -127 60 -61 153 2 120 82 -13 31 -56
54 -85 45z"/>
<path d="M58 214 c-30 -16 -58 -61 -58 -94 0 -45 29 -90 66 -106 45 -19 99
-11 114 15 13 24 -7 42 -35 30 -33 -13 -50 -10 -73 11 -28 26 -28 64 -1 91 17
17 28 19 60 14 32 -6 40 -3 46 11 15 39 -65 58 -119 28z"/>
<path d="M268 200 c-29 -29 -30 -34 -26 -92 4 -51 9 -65 32 -85 15 -12 40 -23
55 -23 34 0 80 40 82 72 1 13 2 37 3 53 5 92 -84 137 -146 75z m81 -29 c17
-11 22 -77 9 -104 -10 -20 -39 -22 -56 -5 -7 7 -12 30 -12 53 0 56 24 78 59
56z"/>
<path d="M453 219 c-8 -8 -3 -36 22 -107 36 -103 46 -118 68 -109 18 7 81 191
73 212 -11 30 -35 14 -51 -32 -33 -94 -30 -92 -50 -33 -25 77 -39 92 -62 69z"/>
<path d="M677 218 c-2 -7 -4 -55 -3 -107 1 -77 4 -96 18 -105 9 -5 20 -7 24
-4 9 9 9 202 0 216 -9 16 -33 15 -39 0z"/>
<path d="M776 213 c-10 -34 -3 -198 8 -205 22 -15 83 -8 109 12 25 20 44 62
42 90 -1 8 -3 25 -3 38 -1 13 -15 37 -31 53 -24 23 -38 29 -75 29 -34 0 -46
-4 -50 -17z m93 -47 c21 -25 21 -76 0 -97 -36 -36 -50 -25 -48 39 1 31 4 60 6
65 7 12 30 8 42 -7z"/>
<path d="M993 214 c-4 -10 0 -22 10 -29 12 -9 16 -28 15 -87 0 -41 2 -80 6
-87 10 -15 33 -14 39 2 7 19 8 182 1 201 -8 22 -62 22 -71 0z"/>
<path d="M1157 208 c-43 -39 -40 -91 8 -119 31 -18 33 -22 20 -36 -30 -29 -12
-63 24 -44 24 13 71 106 71 140 -1 65 -76 101 -123 59z m57 -34 c9 -3 16 -12
16 -18 0 -18 -21 -35 -36 -29 -15 5 -19 35 -7 46 8 8 8 8 27 1z"/>
</g>
</svg>
